# xmcd
# 
# Track frame offsets:
#     180
#     17441
#     35309
#     48598
#     63687
#     79988
#     97829
#     118098
#     133092
#     156520
#     173681
#     191755
#     205009
#     220003
#     236448
#     254661
#     274897
#     289352
# 
# Disc length: 4178
# 
# Revision: 0
# Processed by: cddbd v1.5.2PL0 Copyright (c) Steve Scherf et al.
# Submitted via: fre:ac v1.0.31
# 
DISCID=0c105012
DTITLE=Billboard - Country Hits (Male)
DYEAR=0
DGENRE=Country
TTITLE0=GV- Clint Black/Steve Warner - Been There (Key A)
TTITLE1=GV - Phil Vassar - Carlene (Key E)
TTITLE2=GV - Tracy Lawrence - Lessons Learned (Key F)
TTITLE3=GV - Andy Griggs - She's More (Key G)
TTITLE4=GV - K.Rogers/A.Krauss/B.Dean - Buy Me A Rose (Key Eb)
TTITLE5=GV - Montgomery Gentry - Daddy Won't Sell The Farm (Key D)
TTITLE6=GV - Kenny Chesney - What I Need To Do (Key Ab)
TTITLE7=GV - Yankee Grey - Another Nine Minutes (Key G)
TTITLE8=GV - Clay Walker - The Chain of Love (Key D)
TTITLE9=BGV - Clint Black/Steve Warner - Been There (Key A)
TTITLE10=BGV - Phil Vassar - Carlene (Key E)
TTITLE11=BGV - Tracy Lawrence - Lessons Learned (Key F)
TTITLE12=BGV - Andy Griggs - She's More (Key G)
TTITLE13=BGV - K.Rogers/A.Krauss/B.Dean - Buy Me A Rose (Key Eb)
TTITLE14=BGV - Montgomery Gentry - Daddy Won't Sell The Farm (Key D)
TTITLE15=BGV - Kenny Chesney - What I Need To Do (Key Ab)
TTITLE16=BGV - Yankee Grey - Another Nine Minutes (Key G)
TTITLE17=BGV - Clay Walker - The Chain of Love (Key D)
EXTD=Sing Alone Guide Tracks and Background Vocal Tracks
EXTT0=
EXTT1=
EXTT2=
EXTT3=
EXTT4=
EXTT5=
EXTT6=
EXTT7=
EXTT8=
EXTT9=
EXTT10=
EXTT11=
EXTT12=
EXTT13=
EXTT14=
EXTT15=
EXTT16=
EXTT17=
PLAYORDER=
